<?xml version="1.0" encoding="iso-8859-1"?>
<!-- Generator: Adobe Illustrator 19.0.0, SVG Export Plug-In . SVG Version: 6.00 Build 0)  -->
<svg version="1.1" id="Capa_1" xmlns="http://www.w3.org/2000/svg" xmlns:xlink="http://www.w3.org/1999/xlink" x="0px" y="0px"
	 viewBox="0 0 445.374 445.374" style="enable-background:new 0 0 445.374 445.374;" xml:space="preserve">
<g>
	<g>
		<path d="M414.342,148.054c-1.724-2.285-3.758-4.318-6.042-6.042h0l-79.424-60.189c-5.34-4.095-11.859-6.356-18.587-6.449h-84.476
			V41c0-22.644-18.356-41-41-41s-41,18.356-41,41v34.374h-87.9c-17.01,0-31.1,14.279-31.1,31.289v119.935
			c0.144,17.064,14.036,30.811,31.1,30.776h87.9V435.02c0,5.522,4.1,10.354,9.628,10.354h62.543c5.522,0,9.829-4.832,9.829-10.354
			V257.374h84.476c6.702,0,13.224-2.174,18.587-6.194l79.424-59.949C421.891,180.977,424.596,161.646,414.342,148.054z M163.812,41
			c0-11.598,9.402-21,21-21s21,9.402,21,21v34.374h-42V41z M205.812,425.374h-42v-168h42V425.374z M398.314,173.223
			c-0.593,0.777-1.288,1.472-2.065,2.065l-79.424,59.931c-1.888,1.407-4.182,2.163-6.537,2.155H55.912
			c-6.024,0.047-10.968-4.753-11.1-10.776V106.663c0.09-6.124,4.978-11.096,11.1-11.289h254.376c2.38,0.084,4.671,0.929,6.537,2.41
			l79.424,60.079C401.061,161.534,401.985,168.411,398.314,173.223z"/>
	</g>
</g>
<g>
</g>
<g>
</g>
<g>
</g>
<g>
</g>
<g>
</g>
<g>
</g>
<g>
</g>
<g>
</g>
<g>
</g>
<g>
</g>
<g>
</g>
<g>
</g>
<g>
</g>
<g>
</g>
<g>
</g>
</svg>
