<?xml version="1.0"?>
<svg xmlns="http://www.w3.org/2000/svg" xmlns:xlink="http://www.w3.org/1999/xlink" xmlns:svgjs="http://svgjs.com/svgjs" version="1.1" width="512" height="512" x="0" y="0" viewBox="0 0 512 512" style="enable-background:new 0 0 512 512" xml:space="preserve"><g><path xmlns="http://www.w3.org/2000/svg" d="m492 76h-178v-56c0-11.046875-8.953125-20-20-20h-76c-11.046875 0-20 8.953125-20 20v56h-178c-11.046875 0-20 8.953125-20 20v236c0 11.046875 8.953125 20 20 20h178v140c0 11.046875 8.953125 20 20 20h76c11.046875 0 20-8.953125 20-20v-140h178c11.046875 0 20-8.953125 20-20v-236c0-11.046875-8.953125-20-20-20zm-254-36h36v36h-36zm36 432h-36v-120h36zm198-160c-63.496094 0-369.285156 0-432 0v-196h432zm0 0" fill="#686666" data-original="#000000" style=""/></g></svg>
